<svg width="309" height="262" viewBox="0 0 309 262" fill="none" xmlns="http://www.w3.org/2000/svg">
<path d="M252.117 255.005H258.334V197.007L252.117 195.744V190.886L271.061 187V218.38H271.547C272 217.149 272.616 215.983 273.393 214.882C274.235 213.716 275.239 212.712 276.404 211.871C277.57 210.964 278.93 210.251 280.485 209.733C282.039 209.215 283.788 208.956 285.731 208.956C291.884 208.956 296.255 210.543 298.846 213.716C301.437 216.825 302.732 221.521 302.732 227.803V255.005H308.95V260.834H284.079V255.005H290.005V228.386C290.005 224.565 289.293 221.812 287.868 220.128C286.443 218.38 284.144 217.505 280.97 217.505C279.74 217.505 278.542 217.667 277.376 217.991C276.21 218.315 275.141 218.833 274.17 219.545C273.263 220.193 272.518 221.035 271.935 222.071C271.353 223.108 271.061 224.338 271.061 225.763V255.005H276.987V260.834H252.117V255.005Z" fill="#242E69" style="fill:#242E69;fill:color(display-p3 0.1412 0.1804 0.4118);fill-opacity:1;"/>
<path d="M234.613 261.71C230.792 261.71 228.039 260.9 226.355 259.281C224.736 257.662 223.927 255.168 223.927 251.8V216.34H217.223V210.123H219.361C221.627 210.123 223.247 209.702 224.218 208.86C225.19 207.953 226.032 206.625 226.744 204.877L230.241 196.425H236.653V210.123H248.311V216.34H236.653V254.812H248.311V259.767C247.275 260.285 245.494 260.738 242.968 261.127C240.442 261.515 237.657 261.71 234.613 261.71Z" fill="#242E69" style="fill:#242E69;fill:color(display-p3 0.1412 0.1804 0.4118);fill-opacity:1;"/>
<path d="M180.436 262C175.19 262 171.304 260.737 168.778 258.211C166.252 255.685 164.989 252.188 164.989 247.719C164.989 242.797 166.77 239.072 170.332 236.547C173.959 234.021 179.594 232.758 187.236 232.758H194.134V226.637C194.134 222.686 193.325 219.707 191.705 217.699C190.086 215.627 187.431 214.591 183.739 214.591C180.889 214.591 178.687 215.012 177.133 215.853V216.242C177.78 216.631 178.396 217.246 178.979 218.088C179.626 218.865 179.95 219.966 179.95 221.391C179.95 223.269 179.367 224.824 178.201 226.054C177.1 227.22 175.449 227.803 173.247 227.803C171.369 227.803 169.814 227.188 168.584 225.957C167.418 224.727 166.835 223.107 166.835 221.1C166.835 219.545 167.256 218.056 168.098 216.631C169.005 215.141 170.332 213.846 172.081 212.745C173.83 211.579 175.967 210.672 178.493 210.024C181.084 209.312 184.063 208.956 187.431 208.956C193.907 208.956 198.765 210.445 202.003 213.425C205.242 216.339 206.861 220.452 206.861 225.763V255.102H213.078V259.96C212.107 260.607 210.812 261.093 209.192 261.417C207.573 261.806 205.922 262 204.238 262C200.999 262 198.668 261.223 197.243 259.668C195.818 258.049 195.106 256.009 195.106 253.548V253.256H194.62C194.167 254.357 193.584 255.426 192.871 256.462C192.159 257.499 191.252 258.438 190.151 259.28C189.05 260.057 187.69 260.705 186.071 261.223C184.516 261.741 182.638 262 180.436 262ZM185.391 254.228C187.981 254.228 190.086 253.613 191.705 252.382C193.325 251.152 194.134 249.079 194.134 246.164V238.004H188.597C184.711 238.004 181.926 238.716 180.242 240.141C178.622 241.501 177.813 243.477 177.813 246.067V247.816C177.813 250.018 178.493 251.637 179.853 252.674C181.278 253.71 183.124 254.228 185.391 254.228Z" fill="#242E69" style="fill:#242E69;fill:color(display-p3 0.1412 0.1804 0.4118);fill-opacity:1;"/>
<path d="M135.707 262C131.821 262 128.356 261.352 125.312 260.057C122.333 258.762 119.807 256.948 117.734 254.617C115.662 252.22 114.075 249.403 112.974 246.164C111.938 242.861 111.419 239.267 111.419 235.381C111.419 231.365 111.97 227.738 113.071 224.5C114.237 221.197 115.856 218.412 117.929 216.145C120.001 213.813 122.462 212.032 125.312 210.802C128.226 209.571 131.432 208.956 134.93 208.956C138.427 208.956 141.568 209.539 144.353 210.705C147.203 211.806 149.6 213.392 151.543 215.465C153.55 217.537 155.072 220.031 156.109 222.945C157.21 225.795 157.76 229.001 157.76 232.563V235.575H125.118V239.072C125.118 243.736 126.316 247.33 128.712 249.856C131.173 252.317 134.379 253.548 138.33 253.548C141.957 253.548 144.872 252.738 147.074 251.119C149.276 249.5 150.895 247.492 151.931 245.096L156.692 248.01C156.109 249.629 155.234 251.281 154.068 252.965C152.967 254.584 151.543 256.074 149.794 257.434C148.11 258.794 146.102 259.895 143.771 260.737C141.439 261.579 138.751 262 135.707 262ZM125.118 229.94H144.548V228.677C144.548 224.014 143.706 220.581 142.022 218.379C140.403 216.177 138.039 215.076 134.93 215.076C131.821 215.076 129.392 216.177 127.644 218.379C125.96 220.517 125.118 223.917 125.118 228.58V229.94Z" fill="#242E69" style="fill:#242E69;fill:color(display-p3 0.1412 0.1804 0.4118);fill-opacity:1;"/>
<path d="M66.0953 255.005H72.313V218.962L66.0953 217.699V212.842L84.8454 208.956V218.379H85.3311C85.7845 217.149 86.3674 215.983 87.0798 214.882C87.7923 213.716 88.6342 212.712 89.6057 211.87C90.642 210.964 91.8078 210.251 93.1032 209.733C94.3985 209.215 95.8557 208.956 97.4749 208.956C100.584 208.956 103.012 209.765 104.761 211.385C106.575 213.004 107.481 215.238 107.481 218.088C107.481 220.549 106.866 222.46 105.636 223.82C104.405 225.18 102.689 225.86 100.487 225.86C98.2845 225.86 96.6006 225.277 95.4348 224.111C94.269 222.945 93.6861 221.521 93.6861 219.837C93.6861 218.93 93.8804 218.12 94.269 217.408C94.6576 216.695 95.1109 216.242 95.6291 216.048V215.659C95.37 215.594 94.9166 215.562 94.269 215.562C93.1679 215.562 92.0669 215.886 90.9658 216.534C89.8648 217.116 88.8609 217.894 87.9542 218.865C87.1122 219.772 86.3998 220.808 85.8169 221.974C85.2987 223.14 85.0397 224.306 85.0397 225.471V255.005H93.2003V260.834H66.0953V255.005Z" fill="#242E69" style="fill:#242E69;fill:color(display-p3 0.1412 0.1804 0.4118);fill-opacity:1;"/>
<path d="M0 255.004H6.89768V198.851H0V193.022H34.2941C37.8563 193.022 40.9651 193.443 43.6205 194.285C46.3407 195.062 48.5752 196.163 50.3239 197.588C52.0726 198.948 53.3679 200.6 54.2099 202.543C55.1166 204.486 55.57 206.623 55.57 208.955C55.57 211.351 55.1814 213.456 54.4042 215.269C53.627 217.083 52.5583 218.637 51.1982 219.933C49.9029 221.228 48.4133 222.297 46.7293 223.138C45.0454 223.916 43.2967 224.499 41.4832 224.887V225.373C43.3614 225.567 45.3045 226.053 47.3122 226.83C49.32 227.543 51.1335 228.579 52.7526 229.939C54.3718 231.299 55.6995 232.983 56.7358 234.991C57.7721 236.999 58.2902 239.33 58.2902 241.986C58.2902 247.944 56.412 252.575 52.6555 255.878C48.9638 259.181 43.5881 260.833 36.5285 260.833H0V255.004ZM20.4987 254.518H33.0311C36.6581 254.518 39.443 253.611 41.3861 251.798C43.3291 249.92 44.3006 247.329 44.3006 244.026V239.654C44.3006 236.351 43.3291 233.793 41.3861 231.979C39.443 230.101 36.6581 229.162 33.0311 229.162H20.4987V254.518ZM20.4987 222.847H31.3796C34.7474 222.847 37.2734 222.037 38.9573 220.418C40.706 218.734 41.5804 216.338 41.5804 213.229V208.955C41.5804 205.846 40.706 203.482 38.9573 201.863C37.2734 200.179 34.7474 199.337 31.3796 199.337H20.4987V222.847Z" fill="#242E69" style="fill:#242E69;fill:color(display-p3 0.1412 0.1804 0.4118);fill-opacity:1;"/>
<path d="M152.856 175.018C168.226 175.018 180.249 163.739 180.249 147.253C180.249 123.827 156.699 110.812 112.696 110.812C95.2192 110.812 76.0067 113.911 59.6452 119.612C55.183 121.1 53.1999 124.942 54.3154 128.785C55.4311 132.627 59.1495 134.982 63.9836 133.247C79.2296 128.041 95.7149 125.066 112.696 125.066C147.65 125.066 165.995 133.743 165.995 147.253C165.995 155.806 160.045 160.764 152.856 160.764C145.543 160.764 141.453 155.682 140.089 147.997C139.346 143.907 136.495 140.56 131.785 140.932C126.703 141.304 124.843 145.518 125.463 149.856C127.198 163.615 137.362 175.018 152.856 175.018Z" fill="#B0CEFF" style="fill:#B0CEFF;fill:color(display-p3 0.6911 0.8095 1.0000);fill-opacity:1;"/>
<path d="M214.832 106.102C237.639 106.102 254 91.3515 254 70.8997C254 50.3238 238.382 35.8216 218.922 35.8216C201.197 35.8216 188.058 47.8447 185.579 64.0823C184.835 68.6684 187.315 72.2632 191.281 72.8828C195.371 73.5025 198.966 71.0236 199.958 65.6938C201.569 56.1495 209.626 50.0758 218.922 50.0758C230.449 50.0758 239.746 58.3806 239.746 70.8997C239.746 83.2948 229.83 91.8473 214.832 91.8473C185.455 91.8473 153.724 74.99 114.927 74.99C95.2192 74.99 76.8744 77.9649 59.6452 83.9144C55.183 85.4017 53.1999 89.2443 54.3154 93.0868C55.4311 96.9294 59.1495 99.2844 63.9836 97.549C79.8493 91.9712 96.2107 89.2443 114.927 89.2443C153.724 89.2443 181.985 106.102 214.832 106.102Z" fill="#B0CEFF" style="fill:#B0CEFF;fill:color(display-p3 0.6911 0.8095 1.0000);fill-opacity:1;"/>
<path d="M63.9835 59.7441C78.1139 55.5299 92.6162 53.5466 106.127 53.5466C123.356 53.5466 136.495 56.1496 152.732 56.1496C170.953 56.1496 181.985 43.7545 181.985 28.0127C181.985 11.5274 169.465 0 154.096 0C143.188 0 133.396 6.5694 128.81 15.4938C126.951 19.0883 127.446 23.4266 131.289 25.5339C134.759 27.3931 139.222 26.4015 141.701 21.9391C143.808 17.7249 148.766 14.3781 154.096 14.3781C161.533 14.3781 167.73 19.4602 167.73 28.0127C167.73 36.4413 161.905 41.7712 152.732 41.7712C137.486 41.7712 123.852 39.1684 106.127 39.1684C90.1371 39.1684 74.2714 41.7712 59.6452 45.9856C55.0592 47.349 53.1998 51.3155 54.3154 55.158C55.431 58.8764 59.0256 61.2316 63.9835 59.7441Z" fill="#B0CEFF" style="fill:#B0CEFF;fill:color(display-p3 0.6911 0.8095 1.0000);fill-opacity:1;"/>
</svg>
