<svg width="506" height="443" viewBox="0 0 506 443" fill="none" xmlns="http://www.w3.org/2000/svg">
<path d="M250.106 442.796C288.992 442.796 319.411 414.259 319.411 372.551C319.411 313.282 259.827 280.354 148.502 280.354C104.285 280.354 55.677 288.194 14.2825 302.619C2.99317 306.382 -2.02429 316.104 0.798046 325.825C3.62064 335.547 13.0282 341.505 25.2585 337.115C63.8309 323.943 105.539 316.417 148.502 316.417C236.935 316.417 283.347 338.369 283.347 372.551C283.347 394.189 268.295 406.733 250.106 406.733C231.604 406.733 221.256 393.875 217.806 374.432C215.924 364.084 208.712 355.617 196.795 356.557C183.937 357.498 179.234 368.161 180.802 379.137C185.192 413.945 210.907 442.796 250.106 442.796Z" fill="#B0CEFF" style="fill:#B0CEFF;fill:color(display-p3 0.6911 0.8095 1.0000);fill-opacity:1;"/>
<path d="M406.904 268.437C464.605 268.437 506 231.119 506 179.376C506 127.319 466.487 90.6286 417.253 90.6286C372.408 90.6286 339.168 121.047 332.896 162.128C331.014 173.731 337.286 182.826 347.321 184.394C357.669 185.961 366.764 179.69 369.273 166.205C373.349 142.058 393.733 126.692 417.253 126.692C446.417 126.692 469.937 147.703 469.937 179.376C469.937 210.736 444.849 232.374 406.904 232.374C332.582 232.374 252.302 189.725 154.146 189.725C104.285 189.725 57.8722 197.251 14.2825 212.303C2.99317 216.066 -2.02429 225.788 0.798046 235.51C3.62064 245.231 13.0282 251.189 25.2585 246.799C65.3987 232.687 106.793 225.788 154.146 225.788C252.302 225.788 323.801 268.437 406.904 268.437Z" fill="#B0CEFF" style="fill:#B0CEFF;fill:color(display-p3 0.6911 0.8095 1.0000);fill-opacity:1;"/>
<path d="M25.2584 151.153C61.0082 140.491 97.6989 135.473 131.881 135.473C175.471 135.473 208.712 142.058 249.792 142.058C295.891 142.058 323.801 110.699 323.801 70.8721C323.801 29.1642 292.128 0 253.242 0C225.646 0 200.872 16.6206 189.269 39.1993C184.565 48.2934 185.819 59.2694 195.541 64.6006C204.322 69.3044 215.611 66.7958 221.882 55.5058C227.214 44.844 239.757 36.3766 253.242 36.3766C272.058 36.3766 287.737 49.2343 287.737 70.8721C287.737 92.1965 272.999 105.681 249.792 105.681C211.221 105.681 176.725 99.0961 131.881 99.0961C91.4267 99.0961 51.2865 105.681 14.2824 116.344C2.67966 119.793 -2.02438 129.828 0.797953 139.55C3.62055 148.957 12.7147 154.916 25.2584 151.153Z" fill="#B0CEFF" style="fill:#B0CEFF;fill:color(display-p3 0.6911 0.8095 1.0000);fill-opacity:1;"/>
</svg>
